<svg width="24" height="24" viewBox="0 0 24 24" fill="none" xmlns="http://www.w3.org/2000/svg">
<path fill-rule="evenodd" clip-rule="evenodd" d="M1.8 11.8091C1.8 6.28122 6.28122 1.8 11.8091 1.8C17.337 1.8 21.8182 6.28122 21.8182 11.8091C21.8182 17.337 17.337 21.8182 11.8091 21.8182C6.28122 21.8182 1.8 17.337 1.8 11.8091ZM11.8091 0C5.28711 0 0 5.28711 0 11.8091C0 18.3311 5.28711 23.6182 11.8091 23.6182C18.3311 23.6182 23.6182 18.3311 23.6182 11.8091C23.6182 5.28711 18.3311 0 11.8091 0ZM17.4689 6.42125C17.5665 6.24541 17.3727 6.0516 17.1969 6.14929L11.094 9.53981C10.441 9.90256 9.90265 10.4409 9.5399 11.0939L6.14937 17.1968C6.05168 17.3726 6.2455 17.5665 6.42133 17.4688L12.5243 14.0782C13.1772 13.7155 13.7156 13.1771 14.0783 12.5242L17.4689 6.42125Z" fill="#262F56"/>
</svg>
