<svg width="24" height="24" viewBox="0 0 24 24" fill="none" xmlns="http://www.w3.org/2000/svg">
<path fill-rule="evenodd" clip-rule="evenodd" d="M1.8 11.9C1.8 6.32192 6.32192 1.8 11.9 1.8C17.4741 1.8 22 6.39306 22 11.9C22 15.3184 20.4845 17.4467 19.7274 18.2983C19.3971 18.6698 19.4305 19.2387 19.802 19.5689C20.1735 19.8992 20.7424 19.8658 21.0726 19.4943C22.0223 18.4261 23.8 15.8901 23.8 11.9C23.8 5.40694 18.4762 0 11.9 0C5.32781 0 0 5.32781 0 11.9C0 18.4762 5.40694 23.8 11.9 23.8C15.1311 23.8 17.1119 22.5727 18.0049 20.9612C18.4393 20.1774 18.5935 19.3334 18.507 18.5788C18.4423 18.0135 18.2323 17.4432 17.8482 17.0098C17.9921 16.5742 17.8296 16.0904 17.4418 15.8319L15.6432 14.6328C15.1706 14.3177 14.5319 14.4454 14.2168 14.9181L13.7935 15.553C13.7091 15.6797 13.5973 15.7878 13.4501 15.8267C12.9678 15.9542 11.6873 16.0117 9.73778 14.0622C7.78828 12.1127 7.84582 10.8322 7.97326 10.3499C8.01217 10.2027 8.1203 10.0909 8.24702 10.0065L8.8819 9.5832C9.35458 9.26808 9.48231 8.62944 9.16719 8.15676L7.96811 6.35815C7.69306 5.94558 7.16282 5.78795 6.70706 5.98328L6.16615 6.21509C5.75525 6.3912 5.42006 6.70724 5.22013 7.1071C5.0531 7.44116 4.92364 7.79295 4.9061 8.16603C4.85082 9.34177 5.10863 12.2384 8.33512 15.4649C11.5616 18.6914 14.4582 18.9492 15.634 18.8939C16.0034 18.8765 16.352 18.7494 16.6832 18.5847C16.6981 18.6444 16.7104 18.7106 16.7187 18.7837C16.7612 19.1541 16.6888 19.6226 16.4305 20.0888C15.9381 20.9773 14.6689 22 11.9 22C6.39306 22 1.8 17.4741 1.8 11.9ZM11 4.9C11 4.40294 11.4029 4 11.9 4C16.2631 4 19.8 7.53695 19.8 11.9C19.8 12.3971 19.3971 12.8 18.9 12.8C18.4029 12.8 18 12.3971 18 11.9C18 8.53106 15.2689 5.8 11.9 5.8C11.4029 5.8 11 5.39706 11 4.9ZM11.9 7C11.4029 7 11 7.40294 11 7.9C11 8.39706 11.4029 8.8 11.9 8.8C13.6121 8.8 15 10.1879 15 11.9C15 12.3971 15.4029 12.8 15.9 12.8C16.3971 12.8 16.8 12.3971 16.8 11.9C16.8 9.1938 14.6062 7 11.9 7Z" fill="#152C5B"/>
</svg>
