<svg width="24" height="24" viewBox="0 0 24 24" fill="none" xmlns="http://www.w3.org/2000/svg">
<path fill-rule="evenodd" clip-rule="evenodd" d="M3.5 12C3.5 9.20237 3.5 7.80355 3.99702 6.71522C4.54665 5.5117 5.5117 4.54665 6.71522 3.99702C7.80355 3.5 9.20237 3.5 12 3.5C14.7976 3.5 16.1965 3.5 17.2848 3.99702C18.4883 4.54665 19.4533 5.5117 20.003 6.71522C20.5 7.80355 20.5 9.20237 20.5 12C20.5 14.7976 20.5 16.1965 20.003 17.2848C19.4533 18.4883 18.4883 19.4533 17.2848 20.003C16.1965 20.5 14.7976 20.5 12 20.5C9.20237 20.5 7.80355 20.5 6.71522 20.003C5.5117 19.4533 4.54665 18.4883 3.99702 17.2848C3.5 16.1965 3.5 14.7976 3.5 12ZM12 7.5C9.51487 7.5 7.5 9.51487 7.5 12C7.5 14.4851 9.51487 16.5 12 16.5C14.4851 16.5 16.5 14.4851 16.5 12C16.5 9.51487 14.4851 7.5 12 7.5ZM12 14.8125C10.4497 14.8125 9.1875 13.5503 9.1875 12C9.1875 10.4486 10.4497 9.1875 12 9.1875C13.5503 9.1875 14.8125 10.4486 14.8125 12C14.8125 13.5503 13.5503 14.8125 12 14.8125ZM17.4371 7.1625C17.4371 7.49366 17.1687 7.76213 16.8375 7.76213C16.5063 7.76213 16.2379 7.49366 16.2379 7.1625C16.2379 6.83134 16.5063 6.56288 16.8375 6.56288C17.1687 6.56288 17.4371 6.83134 17.4371 7.1625Z" fill="#262F56"/>
</svg>
