<?xml version="1.0" standalone="no"?>
<!DOCTYPE svg PUBLIC "-//W3C//DTD SVG 20010904//EN"
 "http://www.w3.org/TR/2001/REC-SVG-20010904/DTD/svg10.dtd">
<svg version="1.0" xmlns="http://www.w3.org/2000/svg"
 width="512.000000pt" height="512.000000pt" viewBox="0 0 512.000000 512.000000"
 preserveAspectRatio="xMidYMid meet">

<g transform="translate(0.000000,512.000000) scale(0.100000,-0.100000)"
fill="#000000" stroke="none">
<path d="M2625 4795 c-76 -16 -123 -36 -178 -73 -144 -100 -227 -255 -227
-427 0 -126 39 -231 122 -331 65 -78 92 -145 85 -215 -5 -62 -36 -127 -79
-165 -21 -20 -141 -77 -233 -111 -22 -8 -74 -17 -116 -20 -101 -7 -193 20
-275 80 -80 59 -117 104 -165 199 -56 111 -75 135 -141 178 -142 93 -312 70
-428 -57 -87 -95 -111 -241 -58 -354 53 -116 136 -176 279 -203 136 -26 266
-111 326 -214 35 -60 63 -154 63 -215 0 -58 -25 -201 -46 -262 -30 -87 -123
-148 -224 -148 -44 0 -75 8 -145 41 -108 49 -157 61 -250 62 -219 1 -414 -138
-485 -344 -64 -186 -10 -399 135 -535 157 -147 381 -180 574 -85 72 36 105 64
226 196 75 82 168 107 266 73 52 -19 70 -34 122 -105 23 -30 77 -93 122 -140
121 -127 165 -217 165 -343 0 -134 -48 -245 -157 -359 -99 -104 -128 -165
-127 -273 0 -120 44 -205 137 -269 141 -97 314 -79 435 44 41 41 56 67 74 121
21 66 21 74 9 186 -15 138 -3 209 50 314 72 143 175 211 355 235 145 18 234
39 322 75 128 51 221 34 300 -56 44 -50 57 -87 71 -205 32 -258 248 -450 506
-450 142 0 251 46 355 150 108 108 150 208 150 361 0 106 -24 192 -78 275 -89
137 -219 213 -398 234 -134 15 -220 75 -249 173 -21 70 -19 106 10 168 66 146
102 378 84 554 -12 120 -1 203 41 290 74 155 204 238 401 255 162 14 252 68
311 188 29 59 33 76 33 147 -1 61 -6 92 -23 129 -54 119 -156 192 -281 203
-134 11 -236 -44 -322 -174 -65 -99 -81 -116 -153 -166 -94 -64 -146 -80 -256
-81 -118 0 -157 13 -299 102 -59 37 -132 76 -162 87 -33 12 -71 37 -100 65
-90 89 -92 234 -5 336 18 22 49 64 68 94 159 249 61 592 -206 720 -122 58
-214 71 -331 45z"/>
<path d="M4346 2586 c-101 -38 -166 -133 -166 -245 0 -79 24 -134 82 -186 54
-50 95 -65 173 -65 178 0 297 167 241 338 -19 56 -75 121 -128 148 -44 23
-152 28 -202 10z"/>
<path d="M1435 1401 c-105 -49 -152 -167 -106 -266 59 -128 214 -163 318 -72
90 79 96 209 15 293 -63 65 -148 82 -227 45z"/>
</g>
</svg>
