<svg width="24" height="24" viewBox="0 0 24 24" fill="none" xmlns="http://www.w3.org/2000/svg">
<path d="M21 6.65642C20.3375 6.93751 19.6266 7.12814 18.8798 7.21324C19.6424 6.77597 20.2261 6.08239 20.5028 5.25847C19.7875 5.66342 18.9978 5.95746 18.1565 6.11686C17.4828 5.42866 16.5244 5 15.4615 5C13.4223 5 11.7688 6.5832 11.7688 8.53473C11.7688 8.81151 11.8014 9.08184 11.8644 9.34034C8.79601 9.19277 6.07515 7.78514 4.25412 5.64618C3.9358 6.16747 3.75471 6.77487 3.75471 7.42325C3.75471 8.64997 4.40709 9.73236 5.39692 10.3656C4.79177 10.3462 4.22262 10.1868 3.72435 9.92189V9.96605C3.72435 11.6785 4.99762 13.1077 6.68592 13.4329C6.37659 13.5126 6.05042 13.5568 5.71297 13.5568C5.47453 13.5568 5.24394 13.5342 5.01786 13.4911C5.488 14.8966 6.85127 15.9187 8.46648 15.9467C7.20333 16.8944 5.61062 17.4577 3.88071 17.4577C3.58265 17.4577 3.28906 17.4405 3 17.4093C4.63433 18.4141 6.57459 19 8.65995 19C15.4525 19 19.1655 13.6128 19.1655 8.94077L19.1531 8.48305C19.8786 7.98759 20.5062 7.3651 21 6.65642Z" fill="#152C5B"/>
</svg>
